<svg id="b8cbc205-a267-42f0-acc4-bfa033f54fc7" data-name="Camada 1" xmlns="http://www.w3.org/2000/svg" viewBox="0 0 591.45 527.13"><defs><style>.b16014c9-84f7-427a-b84c-d69bf39a64c2{fill:#af2b46;}.a4dade6f-7d1b-49bc-8785-18c61f300d51{fill:#cce0ee;}.eccf51a5-5453-47ff-bd01-f84d5310e75f{fill:#e9f1f8;}.ba59b381-2855-4824-ac87-102ffa335dd7{fill:#a7cae3;}.b1a8b4e7-a244-4e6c-b2f9-01eebd356108{fill:#6488b2;}.a5670b56-eb3c-40d4-92d3-ca41fd727231{fill:#a6cbe7;}.e9a972cb-ec7d-4517-991c-7076c8c3987c{fill:#86a0c5;}.b0b8677b-481d-47b1-8fc3-76785af8db41{fill:#923f5d;}.fb99a13b-4e89-4515-9286-614e0b129f9f{fill:#f6bb81;}.a3a89106-a41d-48f3-ae7f-1593c4fc6bad{fill:#9abbdb;}.e1c988ec-45ac-4f50-b382-6ed72049af54{fill:#8ea3c9;}.e35531c1-cefa-4b34-85d6-983988542596{fill:#aed6f0;}.b72d8856-4675-4c1c-bb76-6dca8685e5e8{fill:#a2c0de;}.a7786ca1-0d13-4886-9380-9735a7cda609{fill:#8ba0c4;}.b2313401-97a3-4b04-a08e-0bed9a4975f3{fill:#78829f;}.b714fa4d-49e4-4ed6-b703-d4f1cf77ba3e{fill:#b9cae8;}.e07c33cd-9e50-4103-8821-7ec48cba8af2{fill:#fcd67d;}.f4cb5d86-636d-47f1-b32d-0d99c85bd01d{fill:#fbd57f;}.ae640420-9c7f-4e59-89aa-13ddc4109a6a{fill:#e69e63;}.e13ca82a-9fbe-495f-aae9-af8e3b9529b6{fill:#9fc0de;}.b2b3173d-e18e-47a7-91c5-41c4c5140422{fill:#8a9fc2;}.e8ec89c9-b5ca-4110-90d4-428952f074b9{fill:#abd5ec;}.ae430750-e123-4771-a801-17cd3d9e3deb{fill:#d3c0bb;}.bb0b865d-c098-4a77-9531-fcbf4c419053{fill:#9fc1e0;}.a0424d11-a540-4ab8-99fa-5448cd20e621{fill:#fced9e;}.a338ed53-96bb-4908-bf08-c8a854419a39{fill:#6a88b0;}.b97df084-cc9e-4be4-84ae-06f0f5bcaf65{fill:#859dc0;}.a8e78d2e-c59c-499c-bd50-2e13df7aceeb{fill:#a0c2dd;}.f68115f5-6e69-4adb-81e8-3bfaadd14a8a{fill:#aad4eb;}.aaa1c8b0-f900-4a93-881d-c25b3277edb4{fill:#706878;}.aad96400-084f-4edd-b908-7a6d97dda07e{fill:#869ec3;}.e1ed45f5-dcdd-4c62-9c03-c34535c55f9d{fill:#6e7ba1;}.a8634503-1dea-47ed-bf17-d263d1272f15,.aea989b5-bb04-4ec1-9eb8-5beecf66e6f4,.b24e93a0-cf87-449e-9334-da33ba6741ff,.b6b822b2-4541-4a4c-8e5b-cda8ebe1b855,.bafe8baf-fe39-49fc-8036-3505e28f631e{fill:#fff;}.bafe8baf-fe39-49fc-8036-3505e28f631e{opacity:0.24;}.b16542f6-e40a-4579-bb19-527e73f3c414{fill:#913a58;}.a5b81b54-d16a-4502-8f4a-f5bcf9b5ef5b{fill:#f7bc82;}.e98b8b49-062e-4024-9c21-e7cde267645e{fill:#8e3e32;}.a4a7b1b5-fa8b-4677-86a4-266b5cc48f76{fill:#cce4f1;}.adfb0297-6b6e-4229-913d-eded5152bd17{fill:#8c9fc3;}.a9326fe5-0ea6-486e-b3fa-8021e2666d3e,.bc161fcf-ef38-44ea-8892-94009ac3549a,.e3552509-d308-4906-a6d0-93a6ae05f10d{fill:#bbdeec;}.bc161fcf-ef38-44ea-8892-94009ac3549a{stroke:#94bad9;}.a0905309-adca-4658-bddd-383f3ac800e9,.a9326fe5-0ea6-486e-b3fa-8021e2666d3e,.bc161fcf-ef38-44ea-8892-94009ac3549a,.f2133a86-0c47-4302-9910-90af58cb3477,.fbdd98bf-b560-4982-b422-3f8f86adbcb6{stroke-miterlimit:10;}.f222daf3-f713-45a6-abe8-b5e6d4cb9ac1{fill:#ebf2f7;}.e24aaeae-c2c5-4388-b3e1-0f920b595b1b{fill:#fefefe;opacity:0.96;}.abe942f5-36e8-4706-ae23-2423995e6d95,.e40f9a12-c7ab-4715-bb87-b4cacc2c26cf{fill:#cfe6f4;}.abe942f5-36e8-4706-ae23-2423995e6d95{opacity:0.52;}.baba9596-77cc-4438-9a13-62323f4878fe{fill:#8aa1c4;}.f969e25b-1fe9-4c48-9bc1-1acc63053c63{fill:#fefffe;}.e1dc7913-0059-4ec5-ac1e-486601d3a7d0{fill:#716c7c;}.af5aaf70-40c2-4cb5-a2ad-4a523c7fac5b{fill:#b23657;}.f4a8ed31-4246-4885-98de-e578e5291c7c{fill:#f8de89;}.b3b85f16-3ac0-4882-b840-a2bc2a88dce2{fill:#a0c0e0;}.a9326fe5-0ea6-486e-b3fa-8021e2666d3e{stroke:#7798b7;}.ad5b80eb-82a1-4b53-bff4-61ce5f2a5cd9{fill:#f7ece2;}.aa100a94-82df-48d9-bda1-d2ea0c7fa5cb{fill:#dc454f;}.b9bdb187-4891-4801-9cc4-2aaa3dc265b8{fill:#b56540;}.a2ea2f54-6b90-4469-95f5-14ac0835567c{fill:#c97350;}.a0905309-adca-4658-bddd-383f3ac800e9,.f2133a86-0c47-4302-9910-90af58cb3477,.fbdd98bf-b560-4982-b422-3f8f86adbcb6{fill:none;}.f2133a86-0c47-4302-9910-90af58cb3477{stroke:#a1c3e3;}.fbdd98bf-b560-4982-b422-3f8f86adbcb6{stroke:#8da4c8;}.bb76f60d-0ac0-4c4c-8f18-9a049926ad09{fill:#fcd36d;}.ec897bfd-9114-4556-91a8-b0b26f9a160a{fill:#94bedd;}.abd876aa-e0fa-466f-b9bd-5ac4d7fbdefa{fill:#a9d4eb;}.e0c693b9-0d39-477c-aed0-d59d6f9322bc{fill:#96c0e4;}.ae0823c0-a369-427a-8195-0a1dd2674064{fill:#8ba2c4;}.fde919ae-b0c7-457a-96db-c2e1df4e0af6{fill:#f4b96b;}.a42ab131-adc9-42f3-acd1-292533d5f2ad{fill:#fcd576;}.acaa8c4e-1bab-4eb1-a6ca-9079f4095ffe{fill:#f7e58b;}.a56623c7-9cf5-44cf-a6d1-96c79454a428{fill:#f3bf75;}.f6fe4831-958a-4825-a852-e72b90ed6c78{fill:#fbeba4;}.ede570aa-18ce-447f-a2aa-b8bab0397011{fill:#cda169;}.b364d50e-bef9-49ae-8c35-637eaf772364{fill:#faeb92;}.a3e43128-30bc-479e-8e39-08fc25ca7c19{fill:#f3b97f;}.a751b653-4e02-474b-94ef-fff12e93f832{fill:#e9eeda;}.b8adf162-3632-4746-b9e1-dcd4b1d6f6cb{fill:#fff0b1;}.ea97b798-c237-4ec6-92e6-eb07e41d5c4c{fill:#b2395d;}.f1df72e5-d62f-4730-a9e0-3e5ab149d5e8{fill:#dc464f;}.b1630328-adfa-4acf-a2e9-9b3b4359f707{fill:#b03858;}.ee00de75-24a7-4d06-bf9f-db8439ebc3e4{fill:#f4c679;}.f06ca054-1670-4417-8d3f-103fcbbdcd3f{fill:#f6bb7e;}.aea989b5-bb04-4ec1-9eb8-5beecf66e6f4{opacity:0.55;}.ff6e9b2d-4d46-47a5-afd3-d2a64191a9b7{fill:#f8db81;}.a3d490ee-5805-473f-95db-088a316aabdd{fill:#fbe991;}.a44bc4f4-913d-4d70-a905-53cbc80abb57{fill:#862c2f;}.ae23fda2-4fa7-4345-9ba7-5e2720fa245f{fill:#c43356;opacity:0.44;}.f12df9e7-b930-4eb3-bcf3-cf230bbe37de{fill:#fcd573;}.aa799676-9580-4b22-88c5-8e4294588e76{fill:#f4be7c;}.bdb89201-eb99-4d0e-af6a-5dc44d690caa{fill:#e1b55b;opacity:0.37;}.a8634503-1dea-47ed-bf17-d263d1272f15{opacity:0.19;}.a0905309-adca-4658-bddd-383f3ac800e9{stroke:#fbe991;}.b6b822b2-4541-4a4c-8e5b-cda8ebe1b855{opacity:0.33;}</style></defs><title>logo</title><rect class="b16014c9-84f7-427a-b84c-d69bf39a64c2" x="123.29" y="462.82" width="31.68" height="10.22" transform="translate(-131.71 24.11) rotate(-15.26)"/><polygon class="b16014c9-84f7-427a-b84c-d69bf39a64c2" points="81.03 330.57 84.47 347.09 112.1 340.19 106.85 322.47 81.03 330.57"/><path class="a4dade6f-7d1b-49bc-8785-18c61f300d51" d="M36.63,76.41,16.41,110.8a21.23,21.23,0,0,0-2.34,15.66l52.5,220.38,70.55-17.62L82.83,108.7A21.18,21.18,0,0,0,72.09,95Z" transform="translate(-13.49 -28.99)"/><path class="eccf51a5-5453-47ff-bd01-f84d5310e75f" d="M21.08,142.17m7-.3M49.17,83,36.63,76.41,16.41,110.8a21.23,21.23,0,0,0-2.34,15.66l3,12.68A5,5,0,0,0,23,142.92h0a5,5,0,0,0,3.89-6.11L23.7,123.38c-1-4.06,1-7.83,3.16-11.43l8.68-16,9.18-2.22,2.56-6.29Z" transform="translate(-13.49 -28.99)"/><polygon class="ba59b381-2855-4824-ac87-102ffa335dd7" points="24.02 149.51 39.22 157.22 47.55 191.6 32.53 185.76 24.02 149.51"/><path class="ba59b381-2855-4824-ac87-102ffa335dd7" d="M65.94,223.49l-7.42-.22,6.76,23.24-14-7.12,17.54,67s1.84,14.92-8.5,15.33l5.94,24.92,22.75-14.56-7.23-83Z" transform="translate(-13.49 -28.99)"/><rect class="eccf51a5-5453-47ff-bd01-f84d5310e75f" x="54.6" y="164.61" width="4.2" height="58.35" rx="1.25" transform="translate(-57.55 -10.18) rotate(-13.63)"/><rect class="eccf51a5-5453-47ff-bd01-f84d5310e75f" x="74.05" y="256.89" width="4.96" height="36.86" rx="1.37" transform="translate(-76.2 -3.21) rotate(-13.63)"/><path class="ba59b381-2855-4824-ac87-102ffa335dd7" d="M71.72,179.48l5.73.16,6.61,28.76,14.12,7.3,8.52,36.06-12.51-7.93s4.36,42.17,32.27,43l8.69,39.89-23.23,2.17L95.17,302.11Z" transform="translate(-13.49 -28.99)"/><rect class="b1a8b4e7-a244-4e6c-b2f9-01eebd356108" x="73.52" y="142.34" width="8.15" height="191.37" rx="2.43" transform="translate(-67.38 -4.01) rotate(-13.63)"/><rect class="eccf51a5-5453-47ff-bd01-f84d5310e75f" x="78.29" y="121.63" width="10.36" height="45.46" rx="3.08" transform="translate(-44.24 -6.12) rotate(-13.2)"/><rect class="eccf51a5-5453-47ff-bd01-f84d5310e75f" x="33.26" y="153" width="6.99" height="103.79" rx="2.08" transform="translate(-59.3 -15.19) rotate(-13.2)"/><path class="a5670b56-eb3c-40d4-92d3-ca41fd727231" d="M46.39,86.89,44,93.25l-.7-.3a7.8,7.8,0,0,0-10.1,4l-11,23.42A9.87,9.87,0,0,0,26,133l17.78,10.44s9.54-11.6,18.12-4.3a13.55,13.55,0,0,1,4.27,7.42l3.39,15s9,0,11.7,4.29l-8.83-38.82a8,8,0,0,1,1.9-7.36,3.41,3.41,0,0,1,3-1.22l-1.18-5.23a23.69,23.69,0,0,0-10.9-15.14Z" transform="translate(-13.49 -28.99)"/><path class="e9a972cb-ec7d-4517-991c-7076c8c3987c" d="M135.15,326.69s-25.73,4.2-33.33-23l-38-156.93a8.25,8.25,0,0,0-8.93-6.4,8,8,0,0,0-6.7,9.8l38.06,157A31.5,31.5,0,0,1,69.36,343c-1.18.56-1.91.82-1.91.82l.48,1.77,19.56-5.17a10.45,10.45,0,0,0,7.59-12h0c0-.12-.35-1-.81-2.3a7.87,7.87,0,0,0,4.86.38h0a7.87,7.87,0,0,0,4.14-2.56c.13,1.29.22,2.13.24,2.25h0a10.43,10.43,0,0,0,12.38,7l19.68-4.69Z" transform="translate(-13.49 -28.99)"/><polygon class="b0b8677b-481d-47b1-8fc3-76785af8db41" points="520.2 421.44 506.69 421.44 506.69 269.23 468.21 269.23 468.21 421.44 468.21 426.86 468.21 467.54 532.66 467.54 520.2 421.44"/><path class="fb99a13b-4e89-4515-9286-614e0b129f9f" d="M511.41,322.58" transform="translate(-13.49 -28.99)"/><polyline class="fb99a13b-4e89-4515-9286-614e0b129f9f" points="497.92 289.98 499.93 319.92 393.16 319.92 393.16 280.65"/><path class="a3a89106-a41d-48f3-ae7f-1593c4fc6bad" d="M415.51,556.12V348.66h76.08V487.51a67.51,67.51,0,0,1-12.47,39.4C468.63,541.6,449.61,556.26,415.51,556.12Z" transform="translate(-13.49 -28.99)"/><path class="e1c988ec-45ac-4f50-b382-6ed72049af54" d="M454.42,497.2s17.71-5.94,17.27,8.12-11.77,30.33-11.77,30.33h0c3,3.14,8.43,4,11.15.62,15.5-19.18,20.52-29.66,19.75-55.65L461,480.8S458.89,493.5,454.42,497.2Z" transform="translate(-13.49 -28.99)"/><rect class="e35531c1-cefa-4b34-85d6-983988542596" x="435.87" y="350.1" width="29.52" height="40.09"/><path class="b72d8856-4675-4c1c-bb76-6dca8685e5e8" d="M439.91,359.81s14.85,29.63,13.47,38.5,27.54-21,27.54-21l2.66-22.12H439.91Z" transform="translate(-13.49 -28.99)"/><path class="a7786ca1-0d13-4886-9380-9735a7cda609" d="M479.09,364.68c-1.81,15.85-7.22,47.25-22.24,58v6.1h34.74V357.29a2,2,0,0,0-2-2h0A10.57,10.57,0,0,0,479.09,364.68Z" transform="translate(-13.49 -28.99)"/><rect class="b2313401-97a3-4b04-a08e-0bed9a4975f3" x="449.33" y="399.77" width="28.78" height="22.84"/><path class="b714fa4d-49e4-4ed6-b703-d4f1cf77ba3e" d="M473,428.76c.53,6.9-8.52,5.08-8.52,5.08v6s14.88,3,14.35-11Z" transform="translate(-13.49 -28.99)"/><polygon class="e07c33cd-9e50-4103-8821-7ec48cba8af2" points="164.53 289.4 161.35 308.58 177.71 308.58 177.71 289.4 164.53 289.4"/><rect class="f4cb5d86-636d-47f1-b32d-0d99c85bd01d" x="156.97" y="308.58" width="40.05" height="9.99" rx="2.97"/><polygon class="ae640420-9c7f-4e59-89aa-13ddc4109a6a" points="173.29 306.11 161.76 306.11 162.94 298.99 173.29 298.99 173.29 306.11"/><path class="e13ca82a-9fbe-495f-aae9-af8e3b9529b6" d="M189.1,347.56s-16.6,13.55-20.36,16c0,0,48.62,8.07,33,68.19l18.82-17.17v-67Z" transform="translate(-13.49 -28.99)"/><path class="b2b3173d-e18e-47a7-91c5-41c4c5140422" d="M237.56,325.28V421s-19.23,4.7-19.15-15.84V384.47s-12.69-24-5-42.61C213.37,341.86,235.77,330.83,237.56,325.28Z" transform="translate(-13.49 -28.99)"/><path class="e8ec89c9-b5ca-4110-90d4-428952f074b9" d="M213.38,337.58l-.7,20.78a58.82,58.82,0,0,0,4.82,23.86,24.12,24.12,0,0,0,4.72,7.51s1.6,2.66-.88,4.25-14.85-1.06-15.56-31.12V337.58Z" transform="translate(-13.49 -28.99)"/><path class="ae430750-e123-4771-a801-17cd3d9e3deb" d="M161.35,247.11s-9.55-3.67-12.37,3-1.64,14.85,2.47,18.39,8.35.29,8.35.29Z" transform="translate(-13.49 -28.99)"/><path class="ae430750-e123-4771-a801-17cd3d9e3deb" d="M168.74,304.68v7.84a6.57,6.57,0,0,0,6.57,6.57h16.55l-2.52-10.17-20.6-4.24" transform="translate(-13.49 -28.99)"/><polygon class="bb0b865d-c098-4a77-9531-fcbf4c419053" points="145.3 40.83 146.31 247.04 217.88 243.16 217.06 120.92 313.36 123.63 313.36 280.65 364.99 270.96 521.91 203.82 521.91 57.15 145.3 40.83"/><path class="a0424d11-a540-4ab8-99fa-5448cd20e621" d="M161.35,366s38.25,8.47,33.32,53.74c0,0-4.57,20.77-22.09,33.5,0,0,25.07-4,31.29-27.05,6.37-23.6-3-43.3-12.47-51.45-7.64-6.56-13.51-9.6-22.66-11.17S161.35,366,161.35,366Z" transform="translate(-13.49 -28.99)"/><path class="a338ed53-96bb-4908-bf08-c8a854419a39" d="M161.35,366,182,444.32s25.16-25.87,7.08-57.21A44.07,44.07,0,0,0,161.35,366Z" transform="translate(-13.49 -28.99)"/><rect class="b97df084-cc9e-4be4-84ae-06f0f5bcaf65" x="83.95" y="366.43" width="91.11" height="98.58" rx="10.2" transform="translate(-128.42 26.39) rotate(-16.85)"/><path class="ae430750-e123-4771-a801-17cd3d9e3deb" d="M190.48,321.35c-3.59,7.14.93,19.88.93,19.88,41,11.67,58.67-33.06,58.67-33.06-4.24,1.06-12.35,1.44-12.35,1.44Z" transform="translate(-13.49 -28.99)"/><path class="a8e78d2e-c59c-499c-bd50-2e13df7aceeb" d="M137.1,361.36c19.94-6.89,25.84,8.19,25.84,8.19-8-2.43-10.63.78-11.32,5.82-.5,3.64,1,7.6,2.09,11.11l12,38.95a16.9,16.9,0,0,1-11.65,21l-40.8,12.11c-9.14,2.71-18.86-2.32-21.6-11.17L76.74,399c-3-9.72,2.75-20.11,12.79-23.09l40.64-12.28,3.4-1.05C134.76,362.19,135.92,361.77,137.1,361.36Z" transform="translate(-13.49 -28.99)"/><path class="f68115f5-6e69-4adb-81e8-3bfaadd14a8a" d="M94.27,368.67h50.41a5.51,5.51,0,0,1,5.51,5.51v52.11a5.51,5.51,0,0,1-5.51,5.51H92.58a5.51,5.51,0,0,1-5.51-5.51V375.88a7.2,7.2,0,0,1,7.2-7.2Z" transform="translate(-124.39 22.57) rotate(-16.85)"/><path class="aaa1c8b0-f900-4a93-881d-c25b3277edb4" d="M169.92,391.4l-29.85,8.31a6.92,6.92,0,0,1-8.41-4.93h0a6.91,6.91,0,0,1,4.93-8.4l29.57-7.72Z" transform="translate(-13.49 -28.99)"/><path class="aaa1c8b0-f900-4a93-881d-c25b3277edb4" d="M179.26,422.85l-31.58,8.34a6.9,6.9,0,0,1-8.4-4.92h0a6.9,6.9,0,0,1,4.92-8.4l31.13-8Z" transform="translate(-13.49 -28.99)"/><path class="aad96400-084f-4edd-b908-7a6d97dda07e" d="M229.2,421.45l-.4,59.05a87.76,87.76,0,0,0,15.42,46.9c11.21,16,30,31.1,60.25,27.65V421.45Z" transform="translate(-13.49 -28.99)"/><path class="e1ed45f5-dcdd-4c62-9c03-c34535c55f9d" d="M250.08,492.28s-9.94,3.91-16.92-2.9a14.94,14.94,0,0,1-4.33-10.88l0-58.58,21.28,1.53Z" transform="translate(-13.49 -28.99)"/><path class="e1ed45f5-dcdd-4c62-9c03-c34535c55f9d" d="M286.14,508.9v30.77s2.71,15.21,18.33,15.38V507.31Z" transform="translate(-13.49 -28.99)"/><circle class="bafe8baf-fe39-49fc-8036-3505e28f631e" cx="241.98" cy="490.35" r="14.32"/><path class="b16542f6-e40a-4579-bb19-527e73f3c414" d="M247.59,408.17v70.68h13.26v45.44l42.26-17.51S263,466,247.59,408.17" transform="translate(-13.49 -28.99)"/><path class="a5b81b54-d16a-4502-8f4a-f5bcf9b5ef5b" d="M250.08,478.85V522.4a4.8,4.8,0,0,0,7.39,4.05l3.38-2.16V478.85Z" transform="translate(-13.49 -28.99)"/><path class="e98b8b49-062e-4024-9c21-e7cde267645e" d="M217.93,422H478.1a0,0,0,0,1,0,0v28.3a0,0,0,0,1,0,0H215.31a0,0,0,0,1,0,0V424.66A2.62,2.62,0,0,1,217.93,422Z"/><rect class="a4a7b1b5-fa8b-4677-86a4-266b5cc48f76" x="128.42" width="224" height="41.37"/><rect class="adfb0297-6b6e-4229-913d-eded5152bd17" x="456.95" width="80.81" height="41.37"/><circle class="bc161fcf-ef38-44ea-8892-94009ac3549a" cx="160.23" cy="19.08" r="13.92"/><path class="b24e93a0-cf87-449e-9334-da33ba6741ff" d="M176.23,35.24c2.73.62,4.05,4.25,3.69,7-.31,2.49-1.83,5.32-6.63,6.66-9.55,2.65-12-5.88-10.35-8.49A12.89,12.89,0,0,1,176.23,35.24Z" transform="translate(-13.49 -28.99)"/><circle class="bc161fcf-ef38-44ea-8892-94009ac3549a" cx="230.4" cy="19.08" r="13.92"/><path class="b24e93a0-cf87-449e-9334-da33ba6741ff" d="M246.4,35.24c2.73.62,4,4.25,3.69,7-.32,2.49-1.83,5.32-6.63,6.66-9.55,2.65-12-5.88-10.35-8.49A12.89,12.89,0,0,1,246.4,35.24Z" transform="translate(-13.49 -28.99)"/><circle class="bc161fcf-ef38-44ea-8892-94009ac3549a" cx="301.06" cy="19.08" r="13.92"/><path class="b24e93a0-cf87-449e-9334-da33ba6741ff" d="M317.06,35.24c2.73.62,4.05,4.25,3.69,7-.31,2.49-1.83,5.32-6.63,6.66-9.55,2.65-12-5.88-10.35-8.49A12.89,12.89,0,0,1,317.06,35.24Z" transform="translate(-13.49 -28.99)"/><rect class="f222daf3-f713-45a6-abe8-b5e6d4cb9ac1" x="181.1" width="30.5" height="41.37"/><rect class="f222daf3-f713-45a6-abe8-b5e6d4cb9ac1" x="250.59" width="12.47" height="41.37"/><path class="adfb0297-6b6e-4229-913d-eded5152bd17" d="M454.3,69.82H158.79v15H443.9v192.9h73.59V100.68a8.46,8.46,0,0,1,8.45-8.45h9.45V69.82Z" transform="translate(-13.49 -28.99)"/><path class="e24aaeae-c2c5-4388-b3e1-0f920b595b1b" d="M193.5,193.05h0A25,25,0,0,1,218.55,168h24.09v12.34H220.78a19.25,19.25,0,0,0-18.45,14,4.46,4.46,0,0,1-4.31,3.21h0A4.52,4.52,0,0,1,193.5,193.05Z" transform="translate(-13.49 -28.99)"/><path class="f68115f5-6e69-4adb-81e8-3bfaadd14a8a" d="M327.07,106.78H236c-1.75,0-3.48.09-5.2.23v203.5c1.72.15,3.45.24,5.2.24h91.08a62.44,62.44,0,0,0,62.43-62.44v-79.1A62.43,62.43,0,0,0,327.07,106.78Z" transform="translate(-13.49 -28.99)"/><path class="f68115f5-6e69-4adb-81e8-3bfaadd14a8a" d="M173.56,169.21v79.1A62.15,62.15,0,0,0,187,287V130.48A62.19,62.19,0,0,0,173.56,169.21Z" transform="translate(-13.49 -28.99)"/><path class="abe942f5-36e8-4706-ae23-2423995e6d95" d="M230.79,107V85.26H187v45.22A62.32,62.32,0,0,1,230.79,107Z" transform="translate(-13.49 -28.99)"/><path class="f68115f5-6e69-4adb-81e8-3bfaadd14a8a" d="M187,130.48V287a62.32,62.32,0,0,0,43.75,23.47V107A62.32,62.32,0,0,0,187,130.48Z" transform="translate(-13.49 -28.99)"/><path class="abe942f5-36e8-4706-ae23-2423995e6d95" d="M187,130.48V287a62.32,62.32,0,0,0,43.75,23.47V107A62.32,62.32,0,0,0,187,130.48Z" transform="translate(-13.49 -28.99)"/><path class="e40f9a12-c7ab-4715-bb87-b4cacc2c26cf" d="M266,166.54H203.11a30.52,30.52,0,0,0-30.51,30.52h0a30.51,30.51,0,0,0,30.51,30.51h56.78" transform="translate(-13.49 -28.99)"/><path class="b24e93a0-cf87-449e-9334-da33ba6741ff" d="M205.67,166.54c-19.11-.65-27.23,10.34-30.64,18.9a7.09,7.09,0,0,0,6.56,9.75h0a7.18,7.18,0,0,0,6.28-3.8c2.38-4.41,7.66-11,17.8-11Z" transform="translate(-13.49 -28.99)"/><path class="baba9596-77cc-4438-9a13-62323f4878fe" d="M337.16,180.34H204.25a19.44,19.44,0,0,0-19.45,19.44h0a19.44,19.44,0,0,0,19.45,19.44h37.53v92.65h17.58V219.23h77.8a19.44,19.44,0,0,0,19.45-19.44h0A19.44,19.44,0,0,0,337.16,180.34Z" transform="translate(-13.49 -28.99)"/><path class="e40f9a12-c7ab-4715-bb87-b4cacc2c26cf" d="M300.09,166.52H281.53V85.26H260.14v81.26H205.67v13.82h94.42a6.91,6.91,0,1,0,0-13.82Z" transform="translate(-13.49 -28.99)"/><path class="e40f9a12-c7ab-4715-bb87-b4cacc2c26cf" d="M357.12,218.55H294.71v12.2h4.82v80h12.2v-80h45.39a6.1,6.1,0,1,0,0-12.2Z" transform="translate(-13.49 -28.99)"/><rect class="f969e25b-1fe9-4c48-9bc1-1acc63053c63" x="307.75" y="189.56" width="18.64" height="12.2" rx="3.63"/><rect class="f969e25b-1fe9-4c48-9bc1-1acc63053c63" x="293.84" y="254.8" width="24.09" height="12.2" rx="3.63" transform="translate(553.31 -73.98) rotate(90)"/><path class="e1dc7913-0059-4ec5-ac1e-486601d3a7d0" d="M354.13,180.34H221.23a19.44,19.44,0,0,0-19.45,19.44h0a19.44,19.44,0,0,0,19.45,19.44h38.13v92.65h40V219.23h54.81a19.44,19.44,0,0,0,19.45-19.44h0A19.44,19.44,0,0,0,354.13,180.34Z" transform="translate(-13.49 -28.99)"/><polygon class="af5aaf70-40c2-4cb5-a2ad-4a523c7fac5b" points="245.99 269.1 245.99 279.18 234.85 279.18 234.85 377.49 367.46 317.02 367.46 265.65 286.13 281.57 286.13 269.37 245.99 269.1"/><path class="f4a8ed31-4246-4885-98de-e578e5291c7c" d="M248.34,311.88s-10.34,3.94-13.7,14.73V432.89A19.84,19.84,0,0,0,246.23,451l.17.07h10.43v-1.24s-8.31-3.18-8.49-8Z" transform="translate(-13.49 -28.99)"/><circle class="e3552509-d308-4906-a6d0-93a6ae05f10d" cx="513.19" cy="19.08" r="13.92"/><path class="b24e93a0-cf87-449e-9334-da33ba6741ff" d="M529.19,35.24c2.74.62,4,4.25,3.7,7-.32,2.49-1.84,5.32-6.64,6.66-9.55,2.65-12-5.88-10.34-8.49A12.87,12.87,0,0,1,529.19,35.24Z" transform="translate(-13.49 -28.99)"/><rect class="b3b85f16-3ac0-4882-b840-a2bc2a88dce2" x="352.42" width="105.33" height="41.37"/><circle class="a9326fe5-0ea6-486e-b3fa-8021e2666d3e" cx="372.32" cy="19.08" r="13.92"/><path class="b24e93a0-cf87-449e-9334-da33ba6741ff" d="M388.31,35.24c2.74.62,4.06,4.25,3.7,7-.32,2.49-1.83,5.32-6.63,6.66-9.55,2.65-12-5.88-10.35-8.49A12.89,12.89,0,0,1,388.31,35.24Z" transform="translate(-13.49 -28.99)"/><circle class="a9326fe5-0ea6-486e-b3fa-8021e2666d3e" cx="443.04" cy="19.08" r="13.92"/><path class="b24e93a0-cf87-449e-9334-da33ba6741ff" d="M459,35.24c2.74.62,4,4.25,3.7,7-.32,2.49-1.84,5.32-6.64,6.66-9.55,2.65-12-5.88-10.34-8.49A12.87,12.87,0,0,1,459,35.24Z" transform="translate(-13.49 -28.99)"/><path class="ad5b80eb-82a1-4b53-bff4-61ce5f2a5cd9" d="M247.4,310.51c7,.88-29.59,6.67-29.59,6.67s-6.37,15.56-13.44,15.91c0,0-17.33-11.31-15.56-18.74,0,0-41.37-15.56-38.9-32.89,0,0,6.7-20.94,29.84-23.52,9.12-1,16.79,7.51,14.38,16.35-.11.39-.23.77-.37,1.16l8.37-2.69a9.53,9.53,0,0,1,10.08,2.74c3.36,3.8,8.95,12.59,7.37,22.23C219.58,297.73,228.8,308.17,247.4,310.51Z" transform="translate(-13.49 -28.99)"/><ellipse class="aa100a94-82df-48d9-bda1-d2ea0c7fa5cb" cx="270.27" cy="325.9" rx="18.57" ry="10.5" transform="translate(-155.74 201.61) rotate(-37.32)"/><path class="aa100a94-82df-48d9-bda1-d2ea0c7fa5cb" d="M357.31,356.79c-.21-1-9.3-42.52-53.67-22.18-23.73,10.89-39.25,34.74-38.07,60.82,0,.86.09,1.72.16,2.6Z" transform="translate(-13.49 -28.99)"/><path class="b9bdb187-4891-4801-9cc4-2aaa3dc265b8" d="M215.82,424.2h52a0,0,0,0,1,0,0V441a0,0,0,0,1,0,0H215.31a0,0,0,0,1,0,0v-16.3A.51.51,0,0,1,215.82,424.2Z"/><rect class="a2ea2f54-6b90-4469-95f5-14ac0835567c" x="215.31" y="422.04" width="40.94" height="7.07" rx="2.11"/><path class="f2133a86-0c47-4302-9910-90af58cb3477" d="M479.68,352.62" transform="translate(-13.49 -28.99)"/><path class="fbdd98bf-b560-4982-b422-3f8f86adbcb6" d="M455.5,486.55" transform="translate(-13.49 -28.99)"/><rect class="e1c988ec-45ac-4f50-b382-6ed72049af54" x="367.58" y="283.39" width="19" height="28.26"/><path class="bb76f60d-0ac0-4c4c-8f18-9a049926ad09" d="M488.23,316.44v8.67c0,5.85-3.16,10.86-7.27,11.18h-.15c-5,.32-89.16,0-89.16,0s-2-32.95,15.44-36.09,81.14,0,81.14,0Z" transform="translate(-13.49 -28.99)"/><polygon class="ec897bfd-9114-4556-91a8-b0b26f9a160a" points="260.92 413.74 344.78 508.8 447.25 452.82 422.04 352.05 260.92 413.74"/><path class="abd876aa-e0fa-466f-b9bd-5ac4d7fbdefa" d="M277,430.13l40.76,56.49S398.9,516,427.2,430.13a73.46,73.46,0,0,0,2.17-12.08,114.22,114.22,0,0,0-14.45-69l-1.87-3.28-146,66.76Z" transform="translate(-13.49 -28.99)"/><path class="e0c693b9-0d39-477c-aed0-d59d6f9322bc" d="M446.46,387.22l-29.13-30.16-29.69-11.29L252.08,408.86l71.73,114.39,72,9.59,57.72-44.06ZM419.1,497.47s-27.12-2.75-36.24,17.47c0,0-57.84,5.13-94.62-80.6,0,0,9.75-16,6.54-23.59l98.68-46.35s9,10.36,22.14,9.24C415.6,373.64,458,433.31,419.1,497.47Z" transform="translate(-13.49 -28.99)"/><path class="ae0823c0-a369-427a-8195-0a1dd2674064" d="M405.64,352.62m-43.76,175.7,0,0,33.95,4.52,57.72-44.06-7.09-101.56-29.13-30.16-11.69-4.44-4.52,17.73a25.32,25.32,0,0,0,14.48,3.29s42.41,59.67,3.5,123.83c0,0-27.12-2.75-36.24,17.47,0,0-6.79.6-17.2-2.05l-3.78,15.43" transform="translate(-13.49 -28.99)"/><path class="fde919ae-b0c7-457a-96db-c2e1df4e0af6" d="M423.39,322.27l-191.6,86.38,41.9,78.13c43.57,73.73,141.88,60,141.88,60s48-33.93,49.72-93.54C467,393.77,423.39,322.27,423.39,322.27Zm1.12,182.12S396.8,501,384.85,523.65c0,0-56.42,4.4-91.05-61.63l-17.88-30.81s11.17-9.9,10.06-24.76l110-51.72s12.29,12.11,25.14,9.36L431,386.77a137.81,137.81,0,0,1,11,70.19C440.25,473.08,435.4,490.36,424.51,504.39Z" transform="translate(-13.49 -28.99)"/><path class="a42ab131-adc9-42f3-acd1-292533d5f2ad" d="M280.39,455.24s35.38,68.59,92.35,71.53c0,0-2.23,10.63,2.61,13.93,0,0-64.25-2.56-99.43-69.32S280.39,455.24,280.39,455.24Z" transform="translate(-13.49 -28.99)"/><path class="a42ab131-adc9-42f3-acd1-292533d5f2ad" d="M424.41,511.89c-20.22-3.11-30.58,13.38-32.47,16.75a1.38,1.38,0,0,1-1.06.7c-2.12.23-7.87.4-5-5.24,3.39-6.73,12.56-21.71,39-19a1.41,1.41,0,0,1,1.27,1.39v4.07A1.41,1.41,0,0,1,424.41,511.89Z" transform="translate(-13.49 -28.99)"/><path class="a42ab131-adc9-42f3-acd1-292533d5f2ad" d="M442.56,370.73s-10.51-4.74-15.4,7.14c0,0,20,38.28,15.27,75-3.54,27.59-9.66,38.08-11.59,42.13-.65,1.36-1.34,2.77-.9,4.21a2.23,2.23,0,0,0,2.47,1.7H433a3.1,3.1,0,0,0,2-.68c2.78-2.25,11-10.78,15.6-35.42a3.13,3.13,0,0,1,4.81-2l.11.07a3.16,3.16,0,0,0,4.94-2.39c.87-15.91,1.39-60.37-17.21-89.06a3.12,3.12,0,0,0-.64-.72" transform="translate(-13.49 -28.99)"/><path class="acaa8c4e-1bab-4eb1-a6ca-9079f4095ffe" d="M433.61,370.84a1,1,0,0,1-1.77-.79c.23-4.16.55-10.72.3-12.2-.37-2.2-4.47-.73-4.47-.73-16.2,3.85-31.46-13-31.46-13s-4.47-2.2-4.85,3.66l.47,1.47-104.76,48a1.07,1.07,0,0,1-1.3-.34c-.94-1.23-3.1-3.55-5.59-2.48l-.16.07c-.5.28-2.83,1.89-1,7a1.13,1.13,0,0,1,.06.41c-.17,2.16-1.94,21.14-13.45,30a1,1,0,0,0-.34.45c-.4,1.14-1.43,5.29,5.49,4.5a1.06,1.06,0,0,1,1.1.58l7.94,16.59a1,1,0,0,1-.59,1.41c-1.75.65-5,2.56-5.43,8a1.05,1.05,0,0,1-2,.37l-30.61-58.29a1,1,0,0,1,.49-1.42l180.76-81.5a1.06,1.06,0,0,1,1.36.44c2.83,5.09,17.78,32.13,22.53,45.36a1,1,0,0,1-1.37,1.29C442.2,368.66,437.18,367.46,433.61,370.84Z" transform="translate(-13.49 -28.99)"/><path class="a56623c7-9cf5-44cf-a6d1-96c79454a428" d="M425.56,374.23l7.58,17.9a3.19,3.19,0,0,0,4.3,1.62h0a3.59,3.59,0,0,0,1.75-4.74l-6.77-14.74a4.45,4.45,0,0,0-6.2-2h0A1.55,1.55,0,0,0,425.56,374.23Z" transform="translate(-13.49 -28.99)"/><ellipse class="a56623c7-9cf5-44cf-a6d1-96c79454a428" cx="249.61" cy="382.43" rx="6.98" ry="6.88"/><ellipse class="f6fe4831-958a-4825-a852-e72b90ed6c78" cx="249.61" cy="382.43" rx="4.42" ry="4.35"/><ellipse class="ede570aa-18ce-447f-a2aa-b8bab0397011" cx="398.42" cy="499.21" rx="6.98" ry="6.88"/><ellipse class="f6fe4831-958a-4825-a852-e72b90ed6c78" cx="398.42" cy="499.21" rx="4.42" ry="4.35"/><ellipse class="a56623c7-9cf5-44cf-a6d1-96c79454a428" cx="402.17" cy="312.79" rx="6.98" ry="6.88"/><ellipse class="f6fe4831-958a-4825-a852-e72b90ed6c78" cx="402.17" cy="312.79" rx="4.42" ry="4.35"/><path class="b364d50e-bef9-49ae-8c35-637eaf772364" d="M358.17,434.11l-4.83-27.92,18.71,21.58s6.11-39.6,41.26-17.61a27.34,27.34,0,0,0,8.46,3.56,9,9,0,0,0,3.66.27,39,39,0,0,1-13.7,10.46s-1.6,7.48-12.05,6.73c0,0-1.6,6.21-7.08,3.92,0,0-3.37-2.58-9.66-2.27-3.21.16-5.08,3.83-4.56,7l4,23.95a2.47,2.47,0,0,1-1.83,2.57h0a2.52,2.52,0,0,1-2.7-.92l-16.3-22s-3.91-3.74-5.43,2.73a32.68,32.68,0,0,1-4.2,9.77,9.12,9.12,0,0,1-4,3.54,6.15,6.15,0,0,1-4.93.14s-5.81,5-11.37,1.24c0,0-10.94,9.81-17.35,3.78a29.7,29.7,0,0,0,2.92-6.09,30.88,30.88,0,0,0,1.27-5C319.7,446.23,326.71,418,358.17,434.11Z" transform="translate(-13.49 -28.99)"/><path class="a3e43128-30bc-479e-8e39-08fc25ca7c19" d="M400.07,431.74s-1.6,6.21-7.07,3.92c0,0-3.37-2.58-9.66-2.27-3.22.16-5.08,3.83-4.56,7l4,23.95a2.47,2.47,0,0,1-1.83,2.57h0a2.53,2.53,0,0,1-2.7-.92l-16.3-22s-3.91-3.74-5.42,2.74a33,33,0,0,1-4.21,9.76,9.12,9.12,0,0,1-4,3.54,6.15,6.15,0,0,1-4.93.14s-5.07-7.81,5.26-15c0,0,5.59-9.63,13.13-7.43,0,0,6.42,4.12,6.42-1.65l-14.44-29.32,20.59,24.09s7-7.7,11.17-3S392.59,420,400.07,431.74Z" transform="translate(-13.49 -28.99)"/><path class="a751b653-4e02-474b-94ef-fff12e93f832" d="M367.56,434.28l-14.11-27.53" transform="translate(-13.49 -28.99)"/><path class="b8adf162-3632-4746-b9e1-dcd4b1d6f6cb" d="M353.45,406.75l4.72,27.36c-30.88-15.5-37.82,9.29-38.89,15.46-.25,1.46-.8,2.85-1.08,4.31a51.65,51.65,0,0,1-1.53,5.92s4.1-8.62,5.36-13.3,9.28-19.53,23.74-14.3,12.4,1.91,12.4,1.91" transform="translate(-13.49 -28.99)"/><path class="b8adf162-3632-4746-b9e1-dcd4b1d6f6cb" d="M372.45,426.13l1.82.16a10,10,0,0,0,8.83-3.91c3.34-4.42,9.95-10.31,20.7-8.51,16.7,2.8,19.57-.88,19.57-.88a9.51,9.51,0,0,1-4-.37,25.5,25.5,0,0,1-7.43-3.19c-33.64-21.16-39.49,16.7-39.49,16.7" transform="translate(-13.49 -28.99)"/><rect class="acaa8c4e-1bab-4eb1-a6ca-9079f4095ffe" x="420.16" y="310.36" width="14.48" height="9.31" rx="2.77"/><polygon class="ea97b798-c237-4ec6-92e6-eb07e41d5c4c" points="576.14 460.54 549.39 467.41 522.63 460.54 522.63 434.79 576.14 434.79 576.14 460.54"/><rect class="f1df72e5-d62f-4730-a9e0-3e5ab149d5e8" x="521.27" y="439.83" width="44.03" height="16.97" rx="5.05"/><rect class="bb76f60d-0ac0-4c4c-8f18-9a049926ad09" x="424.97" y="310.36" width="55.01" height="9.31" rx="2.77"/><path class="b1630328-adfa-4acf-a2e9-9b3b4359f707" d="M503.14,330.26c5.31,0,9.48,3.44,9.48,8.75a9.68,9.68,0,0,1-9.65,9.65H488.23V451.6c6,0,4.26,2.4,4.26,8.36v10.46a10.22,10.22,0,0,0,10.22,10.23h23.15v-163H500.62v9.86S500.45,330.75,503.14,330.26Zm8.27,109.54a5.84,5.84,0,1,1-11.67,0V358.12a5.84,5.84,0,1,1,11.67,0Z" transform="translate(-13.49 -28.99)"/><path class="ee00de75-24a7-4d06-bf9f-db8439ebc3e4" d="M536.69,311.68v143A44.31,44.31,0,0,0,549.25,486c10.25,10.29,25.24,14.61,39.07-22l16.62-.36S600.7,496.89,567.46,498H552.88A32.9,32.9,0,0,1,527.16,486a28.61,28.61,0,0,1-6.38-15.67c-1.77-20.15,0-180.19,0-180.19H536Z" transform="translate(-13.49 -28.99)"/><path class="f06ca054-1670-4417-8d3f-103fcbbdcd3f" d="M582.44,477c-12.07,22.16-24.38,17.73-33.19,8.89a44.31,44.31,0,0,1-12.56-31.35v-83.4l-16.57-.24c-.23,43-.24,89.15.66,99.36A28.64,28.64,0,0,0,527.16,486a32.89,32.89,0,0,0,25.72,11.91h14.58c14.79-.47,23.84-7.31,29.32-14.76" transform="translate(-13.49 -28.99)"/><path class="ae430750-e123-4771-a801-17cd3d9e3deb" d="M396.24,310.06,407.59,324a6.52,6.52,0,0,0,9.27.83l7.67-6.54S440.45,330,454.24,325l2.65-9.32s52.51,19.66,88.58-28.3c0,0-2.65-12.42-22.81-26.21,0,0,27.58-17.5,17.51-52,0,0-23.87-5.31-36.6,11.14S396.24,310.06,396.24,310.06Z" transform="translate(-13.49 -28.99)"/><path class="ad5b80eb-82a1-4b53-bff4-61ce5f2a5cd9" d="M396.87,275.59s-22.28,1.25-28.65,24.76v14.41s17.51,11,33.95-7.2a24.38,24.38,0,0,0,5.66,5.75c6.92,5.17,20.39,10.3,41.55-1.65,0,0,84.87,3.19,74.26-91.76,0,0-63.12-13.79-84.34,46.68,0,0-8.48-23.34-40.31-13.53Z" transform="translate(-13.49 -28.99)"/><circle class="aea989b5-bb04-4ec1-9eb8-5beecf66e6f4" cx="371.38" cy="271.57" r="5.92"/><path class="aea989b5-bb04-4ec1-9eb8-5beecf66e6f4" d="M447.72,249.91s4,41.84,50.77,20.63a29,29,0,0,0,16.83-21c1.75-9.89-1.49-21.81-23-28C492.28,221.53,465.49,220.47,447.72,249.91Z" transform="translate(-13.49 -28.99)"/><path class="aea989b5-bb04-4ec1-9eb8-5beecf66e6f4" d="M403.92,256.29a4.42,4.42,0,0,0-1.93,3.14c-.63,5.05-1,18.09,12.34,18.15,9.19.05,12.53-4.23,13.69-8a9.65,9.65,0,0,0-2.19-9.24C421.88,255.89,413.86,249.62,403.92,256.29Z" transform="translate(-13.49 -28.99)"/><path class="b16014c9-84f7-427a-b84c-d69bf39a64c2" d="M153.17,333.5l-95,23.76a3.2,3.2,0,0,0-2.27,4.07h0a3.19,3.19,0,0,0,3.83,2.12l94.88-24.24a2.94,2.94,0,0,0,2.15-3.48h0A3,3,0,0,0,153.17,333.5Z" transform="translate(-13.49 -28.99)"/><path class="ff6e9b2d-4d46-47a5-afd3-d2a64191a9b7" d="M59.27,368.28h0c-3.17,4-8.5,12-2.38,13.07,6.72,1.2,9.48-9.92,10.09-14l87-21.05c2.87,2.57,7.18,6.64,10.76,4.39,7.1-4.46-9.81-12.66-9.81-12.66-4-2.21-.34-6.41-.34-6.41,1-2.16,7.43-13.43,0-17.32-5.46-2.86-6.14,6.51-6.11,11.67L60.3,347.27c-3.06-2-14.69-9.22-15.1-1.95-.32,5.72,6.12,8.17,10.66,8.87C55.86,354.19,63.35,361.62,59.27,368.28Z" transform="translate(-13.49 -28.99)"/><rect class="a3d490ee-5805-473f-95db-088a316aabdd" x="59.78" y="347.47" width="32.81" height="5.78" rx="1.72" transform="translate(-91.96 -2.11) rotate(-13.29)"/><rect class="a3d490ee-5805-473f-95db-088a316aabdd" x="65.85" y="355.51" width="32.81" height="5.78" rx="1.72" transform="translate(-93.65 -0.5) rotate(-13.29)"/><rect class="a3d490ee-5805-473f-95db-088a316aabdd" x="117.45" y="331.73" width="32.81" height="5.78" rx="1.72" transform="translate(-96.88 18.07) rotate(-15.27)"/><rect class="a3d490ee-5805-473f-95db-088a316aabdd" x="116.18" y="343.37" width="32.81" height="5.78" rx="1.72" transform="translate(-99.99 18.14) rotate(-15.27)"/><polygon class="a44bc4f4-913d-4d70-a905-53cbc80abb57" points="96.64 308.44 88.84 304.08 84.53 311.91 80.23 319.74 88.03 324.1 95.83 328.46 100.14 320.63 104.44 312.8 96.64 308.44"/><rect class="ae23fda2-4fa7-4345-9ba7-5e2720fa245f" x="100.02" y="334.68" width="6.1" height="16.97" rx="1.81" transform="translate(171.9 -34.55) rotate(30)"/><rect class="ae23fda2-4fa7-4345-9ba7-5e2720fa245f" x="106.61" y="338.35" width="5.65" height="16.97" rx="1.68" transform="matrix(0.87, 0.5, -0.5, 0.87, 174.59, -37.24)"/><rect class="f12df9e7-b930-4eb3-bcf3-cf230bbe37de" x="122.34" y="472.58" width="38.91" height="4.71" rx="1.4" transform="translate(-133.46 25.06) rotate(-15.26)"/><rect class="aa799676-9580-4b22-88c5-8e4294588e76" x="130.93" y="476.88" width="24.53" height="6.87" transform="translate(-134.83 25.61) rotate(-15.26)"/><path class="f12df9e7-b930-4eb3-bcf3-cf230bbe37de" d="M132.49,486.62l23.27-6.2a2.51,2.51,0,0,1,3.3,2.78l-5,19.67a2.72,2.72,0,0,1-4.22,1.3l-18.27-13.46A2.28,2.28,0,0,1,132.49,486.62Z" transform="translate(-13.49 -28.99)"/><path class="bdb89201-eb99-4d0e-af6a-5dc44d690caa" d="M147.32,482.65l8.42-2.23c1.93-.52,3.77,1,3.32,2.78l-5,19.67a2.57,2.57,0,0,1-2.5,1.84" transform="translate(-13.49 -28.99)"/><ellipse class="a8634503-1dea-47ed-bf17-d263d1272f15" cx="144.14" cy="494.74" rx="3.4" ry="6.88" transform="translate(-291.86 170.75) rotate(-38.83)"/><polygon class="a0905309-adca-4658-bddd-383f3ac800e9" points="96.64 308.14 88.84 303.78 84.53 311.61 80.23 319.45 88.03 323.8 95.83 328.16 100.14 320.33 104.44 312.5 96.64 308.14"/><circle class="b6b822b2-4541-4a4c-8e5b-cda8ebe1b855" cx="192.18" cy="255.14" r="11.18"/><ellipse class="b6b822b2-4541-4a4c-8e5b-cda8ebe1b855" cx="179.49" cy="268.41" rx="11.18" ry="9.34" transform="translate(-53.3 2.42) rotate(-9.01)"/></svg>