<?xml version="1.0" standalone="no"?>
<!DOCTYPE svg PUBLIC "-//W3C//DTD SVG 20010904//EN"
 "http://www.w3.org/TR/2001/REC-SVG-20010904/DTD/svg10.dtd">
<svg version="1.0" xmlns="http://www.w3.org/2000/svg"
 width="627.000000pt" height="573.000000pt" viewBox="0 0 627.000000 573.000000"
 preserveAspectRatio="xMidYMid meet">

<g transform="translate(0.000000,573.000000) scale(0.100000,-0.100000)"
fill="#000000" stroke="none">
<path d="M2161 3908 c-113 -32 -169 -172 -110 -277 50 -89 91 -101 345 -101
l204 0 0 -445 0 -445 -55 0 -55 0 0 -460 c0 -253 3 -460 6 -460 3 0 254 112
557 249 304 137 600 270 660 296 l107 48 0 112 0 112 -45 7 c-82 11 -85 15
-85 116 0 50 -2 90 -4 90 -2 0 -153 -29 -336 -65 -183 -36 -336 -65 -341 -65
-5 0 -9 193 -9 455 l0 455 283 0 c163 0 298 4 319 10 78 22 138 103 138 185 0
82 -60 163 -138 185 -49 13 -1393 12 -1441 -2z"/>
<path d="M5165 2598 c-22 -12 -65 -29 -95 -39 l-55 -17 0 -58 c0 -58 0 -58 33
-65 81 -16 108 -94 53 -150 -28 -28 -33 -29 -120 -29 l-91 0 0 -343 c0 -189
-3 -419 -7 -510 l-6 -166 -106 -3 -106 -3 -7 -84 c-4 -46 -12 -106 -17 -133
-6 -27 -11 -53 -11 -58 0 -5 66 -11 148 -12 l147 -3 -2 -83 -2 -82 246 0 247
0 -54 33 c-67 40 -115 101 -137 175 -15 52 -17 130 -15 855 1 438 1 797 -1
797 -1 -1 -20 -10 -42 -22z"/>
<path d="M1540 2377 c0 -8 7 -21 16 -28 14 -11 15 -10 12 11 -3 26 -28 41 -28
17z"/>
<path d="M1006 2338 c-31 -55 -50 -97 -45 -102 2 -1 34 -20 70 -40 l67 -37 40
73 40 73 -67 37 c-36 21 -69 38 -73 38 -4 0 -18 -19 -32 -42z"/>
<path d="M1090 2148 c-69 -17 -127 -32 -129 -34 -4 -4 16 -115 22 -120 3 -4
256 72 262 78 4 3 -24 109 -28 107 -1 0 -58 -14 -127 -31z"/>
<path d="M574 2137 c-9 -23 2 -47 21 -47 12 0 15 6 10 23 -10 33 -23 43 -31
24z"/>
<path d="M1520 1898 c-166 -44 -170 -46 -189 -80 -12 -21 -12 -28 0 -54 13
-26 19 -29 64 -29 46 1 290 60 307 74 7 6 -19 111 -31 122 -3 3 -71 -11 -151
-33z"/>
<path d="M1580 1578 c-80 -22 -153 -47 -162 -56 -37 -32 -8 -112 40 -112 17 0
334 79 340 85 2 2 -4 31 -14 64 -14 51 -20 61 -38 60 -11 0 -86 -19 -166 -41z"/>
<path d="M2300 1365 l0 -155 76 0 76 0 -33 27 c-50 43 -69 94 -69 196 0 86 0
87 -25 87 l-25 0 0 -155z"/>
<path d="M2500 1290 c6 -11 13 -20 16 -20 2 0 0 9 -6 20 -6 11 -13 20 -16 20
-2 0 0 -9 6 -20z"/>
<path d="M2302 1008 l3 -138 35 -35 c38 -37 88 -53 134 -41 23 6 25 11 28 69
l3 62 57 3 58 3 2 -225 3 -225 120 50 c66 27 121 49 122 49 1 0 3 -64 5 -143
3 -132 5 -146 27 -178 31 -46 61 -67 110 -78 l41 -9 0 165 0 165 -90 85 c-130
123 -166 173 -315 445 l-59 107 -144 3 -143 3 3 -137z"/>
<path d="M1380 1075 c-135 -42 -135 -42 -132 -71 2 -16 7 -33 12 -38 9 -9 277
59 293 74 12 11 -7 75 -24 76 -8 1 -75 -17 -149 -41z"/>
<path d="M5394 1056 c25 -101 101 -202 181 -241 52 -26 59 -27 98 -15 57 17
118 82 167 180 22 44 40 84 40 90 0 6 -85 10 -246 10 l-246 0 6 -24z"/>
</g>
</svg>
